<?xml version="1.0" encoding="utf-8"?>
<!-- Generator: Adobe Illustrator 23.0.3, SVG Export Plug-In . SVG Version: 6.00 Build 0)  -->
<svg version="1.1" id="Ebene_1" xmlns="http://www.w3.org/2000/svg" xmlns:xlink="http://www.w3.org/1999/xlink" x="0px" y="0px"
	 viewBox="0 0 202 199.97" style="enable-background:new 0 0 202 199.97;" xml:space="preserve">
<style type="text/css">
	.st0{fill:none;stroke:#000000;stroke-width:2;stroke-miterlimit:3.8637;}
	.st1{stroke:#000000;stroke-width:0;stroke-miterlimit:3.8637;}
	.st2{fill:#FFFFFF;stroke:#FFFFFF;stroke-width:0.144;stroke-miterlimit:3.8637;}
	.st3{fill-rule:evenodd;clip-rule:evenodd;fill:#FFFFFF;}
	.st4{fill:none;stroke:#FFFFFF;stroke-width:0.144;stroke-miterlimit:3.8637;}
	.st5{fill-rule:evenodd;clip-rule:evenodd;}
	.st6{fill:none;stroke:#000000;stroke-width:0.1109;stroke-miterlimit:3.8637;}
	.st7{stroke:#000000;stroke-width:0.1109;stroke-miterlimit:3.8637;}
</style>
<g>
	<polygon class="st0" points="1,1 201,1 201,198.97 1,198.97 1,1 	"/>
	<polygon class="st1" points="1.24,135.07 201.1,135.07 201.1,199.07 1.24,199.07 1.24,135.07 	"/>
	<polygon class="st2" points="19.66,188.24 22.08,188.24 22.08,167.37 40.08,167.37 40.08,188.24 42.49,188.24 42.49,147.19 
		40.08,147.19 40.08,165.19 22.08,165.19 22.08,147.19 19.66,147.19 19.66,188.24 	"/>
	<path class="st3" d="M86.05,173.52H71.62l7.24-23.92h0.12L86.05,173.52L86.05,173.52z M90.42,188.24h2.41l-12.3-41.05h-3.05
		l-12.76,41.05h2.41l3.91-12.76h15.47L90.42,188.24L90.42,188.24z"/>
	<path class="st4" d="M86.05,173.52H71.62l7.24-23.92h0.12L86.05,173.52L86.05,173.52z M90.42,188.24h2.41l-12.3-41.05h-3.05
		l-12.76,41.05h2.41l3.91-12.76h15.47L90.42,188.24L90.42,188.24z"/>
	<path class="st2" d="M116.97,147.19h-2.41v29.73c0,9.83,5.69,12.02,11.38,12.02s11.38-2.76,11.38-12.02v-29.73h-2.41v30.19
		c0,5.75-3.05,9.6-8.97,9.6c-6.38,0-8.97-3.85-8.97-9.6V147.19L116.97,147.19z"/>
	<path class="st2" d="M163.72,175.59h-2.41v2.7c0,3.97,2.24,10.64,11.73,10.64c6.5,0,11.9-4.14,11.9-11.44
		c0-6.04-3.05-8.62-8.34-10.46l-6.09-2.13c-3.56-1.21-6.04-3.39-6.04-7.93c0-6.38,4.2-8.51,8.8-8.51c5.81,0,8.34,3.68,8.34,9.2h2.41
		c0-6.84-3.39-11.15-10.98-11.15c-6.44,0-10.98,4.08-10.98,10.69c0,5.58,2.93,8.22,8.34,10.06l4.66,1.61
		c4.6,1.61,7.47,3.45,7.47,8.8c0,5.23-3.79,9.31-9.49,9.31c-5.92,0-9.31-4.02-9.31-9.26V175.59L163.72,175.59z"/>
	<path class="st5" d="M70.74,38.62c0-10.88,5.87-17.2,12.9-17.2c7.11,0,12.2,6.32,12.2,17.2c0,10.18-5.17,16.14-12.2,16.14
		C76.61,54.76,70.74,48.8,70.74,38.62L70.74,38.62z M59.18,38.66c0-16.49,10.57-26.5,24.04-26.5c13.47,0,24.04,10,24.04,26.5
		c0,17.02-10.57,25.09-24.04,25.09C69.75,63.75,59.18,55.68,59.18,38.66L59.18,38.66z"/>
	<path class="st6" d="M70.74,38.62c0-10.88,5.87-17.2,12.9-17.2c7.11,0,12.2,6.32,12.2,17.2c0,10.18-5.17,16.14-12.2,16.14
		C76.61,54.76,70.74,48.8,70.74,38.62L70.74,38.62z M59.18,38.66c0-16.49,10.57-26.5,24.04-26.5c13.47,0,24.04,10,24.04,26.5
		c0,17.02-10.57,25.09-24.04,25.09C69.75,63.75,59.18,55.68,59.18,38.66L59.18,38.66z"/>
	<polygon class="st7" points="110.6,13.56 121.83,13.56 121.83,53.22 145.36,53.22 145.36,62.52 110.6,62.52 110.6,13.56 	"/>
	<polygon class="st7" points="148.17,13.6 184.32,13.6 184.32,22.9 159.4,22.9 159.4,32.9 180.61,32.9 180.61,42.38 159.4,42.38 
		159.4,62.56 148.17,62.56 148.17,13.6 	"/>
	<polygon class="st7" points="61.29,71.29 96.93,71.33 96.93,80.46 72.72,80.46 72.72,89.06 94.13,89.06 94.13,98.53 72.54,98.53 
		72.54,109.59 97.63,109.59 97.63,118.67 61.31,118.67 61.29,71.29 	"/>
	<polygon class="st7" points="141.48,118.85 141.48,71.12 130.25,71.12 130.24,99.23 130.62,102.65 112.7,71.12 101.47,71.12 
		101.47,118.85 112.7,118.85 112.7,90.04 112.24,86.48 130.25,118.85 141.48,118.85 	"/>
	<polygon class="st7" points="145.77,70.98 184.32,70.98 184.32,79.13 159.04,109.53 184.32,109.53 184.32,118.81 144.68,118.81 
		144.68,110.47 170.28,80.35 145.73,80.35 145.77,70.98 	"/>
	<path class="st5" d="M28.8,22.86c0,0,8.16-0.1,10.56,0c6.77,0.27,6.81,3.94,6.81,5.86c0,4.02-1.86,5.7-7.02,5.79
		c-2.62,0.05-10.36,0-10.36,0V22.86L28.8,22.86z M19.01,13.59v48.97h9.89V43.27c8.9,0,11.96-0.65,14.49,3.03
		c3.43,5.01,0.8,14.45,3.34,16.26h11.2c-3.5-3.25-0.43-15.45-3.84-20.15c-1.33-1.83-2.59-2.86-4.43-3.75
		c4.88-2.34,7.62-6.16,7.62-11.61c0-9.57-7.3-13.47-17.02-13.47H19.01L19.01,13.59z"/>
	<path class="st6" d="M28.8,22.86c0,0,8.16-0.1,10.56,0c6.77,0.27,6.81,3.94,6.81,5.86c0,4.02-1.86,5.7-7.02,5.79
		c-2.62,0.05-10.36,0-10.36,0V22.86L28.8,22.86z M19.01,13.59v48.97h9.89V43.27c8.9,0,11.96-0.65,14.49,3.03
		c3.43,5.01,0.8,14.45,3.34,16.26h11.2c-3.5-3.25-0.43-15.45-3.84-20.15c-1.33-1.83-2.59-2.86-4.43-3.75
		c4.88-2.34,7.62-6.16,7.62-11.61c0-9.57-7.3-13.47-17.02-13.47H19.01L19.01,13.59z"/>
	<path class="st5" d="M28.78,98.25v11.26h11.26c2.88-0.01,5.85-2.05,6.11-5.16c0.28-3.33-2.67-6.33-6-6.11H28.78L28.78,98.25z
		 M28.82,80.44l-0.04,9.37H39.2c2.78,0.11,6.06-1.94,5.9-4.94c-0.15-2.87-3.01-4.43-5.9-4.42L28.82,80.44L28.82,80.44z M18.88,71.09
		v47.79h24c7.74,0.39,14.44-6.26,14.11-14c-0.23-5.34-2.69-9.11-7.47-11.47c3.85-2.43,6-5.45,6-10c0-6.33-5.12-12.33-19.12-12.33
		L18.88,71.09L18.88,71.09z"/>
	<path class="st6" d="M28.78,98.25v11.26h11.26c2.88-0.01,5.85-2.05,6.11-5.16c0.28-3.33-2.67-6.33-6-6.11H28.78L28.78,98.25z
		 M28.82,80.44l-0.04,9.37H39.2c2.78,0.11,6.06-1.94,5.9-4.94c-0.15-2.87-3.01-4.43-5.9-4.42L28.82,80.44L28.82,80.44z M18.88,71.09
		v47.79h24c7.74,0.39,14.44-6.26,14.11-14c-0.23-5.34-2.69-9.11-7.47-11.47c3.85-2.43,6-5.45,6-10c0-6.33-5.12-12.33-19.12-12.33
		L18.88,71.09L18.88,71.09z"/>
</g>
</svg>
