<?xml version="1.0" encoding="UTF-8" standalone="no"?>
<svg
   xmlns:dc="http://purl.org/dc/elements/1.1/"
   xmlns:cc="http://creativecommons.org/ns#"
   xmlns:rdf="http://www.w3.org/1999/02/22-rdf-syntax-ns#"
   xmlns:svg="http://www.w3.org/2000/svg"
   xmlns="http://www.w3.org/2000/svg"
   viewBox="0 0 126.62667 29.186666"
   height="29.186666"
   width="126.62667"
   xml:space="preserve"
   id="svg2"
   version="1.1"><metadata
     id="metadata8"><rdf:RDF><cc:Work
         rdf:about=""><dc:format>image/svg+xml</dc:format><dc:type
           rdf:resource="http://purl.org/dc/dcmitype/StillImage" /></cc:Work></rdf:RDF></metadata><defs
     id="defs6"><clipPath
       id="clipPath28"
       clipPathUnits="userSpaceOnUse"><path
         id="path26"
         d="m 811.105,3.99219 h 138.582 v 214.875 H 811.105 Z" /></clipPath><clipPath
       id="clipPath44"
       clipPathUnits="userSpaceOnUse"><path
         id="path42"
         d="m 811.105,3.99219 h 138.582 v 214.875 H 811.105 Z" /></clipPath><clipPath
       id="clipPath56"
       clipPathUnits="userSpaceOnUse"><path
         id="path54"
         d="m 811.105,3.99219 h 138.582 v 214.875 H 811.105 Z" /></clipPath></defs><g
     transform="matrix(1.3333333,0,0,-1.3333333,0,29.186667)"
     id="g10"><g
       transform="scale(0.1)"
       id="g12"><path
         id="path14"
         style="fill:#231f20;fill-opacity:1;fill-rule:evenodd;stroke:none"
         d="m 845.508,56.3281 c -21.414,0 -34.403,13.711 -34.403,31.211 0,17.4879 12.989,31.2109 34.403,31.2109 22.09,0 32.578,-13.723 32.578,-31.2109 0,-17.5 -10.488,-31.211 -32.578,-31.211 m -0.059,15 c -14.121,0 -22.324,7.625 -22.324,16.7461 0,9.2305 8.203,15.8358 22.324,15.8358 13.223,0 20.969,-6.7147 20.969,-15.8358 0,-9.1211 -7.746,-16.7461 -20.969,-16.7461 v 0" /><path
         id="path16"
         style="fill:#231f20;fill-opacity:1;fill-rule:nonzero;stroke:none"
         d="m 812.922,123.074 v 14.582 h 51.492 v 30.563 h 12.07 v -45.145 h -63.562" /><path
         id="path18"
         style="fill:none;stroke:#231f20;stroke-width:0.13589001;stroke-linecap:butt;stroke-linejoin:miter;stroke-miterlimit:3.86369991;stroke-dasharray:none;stroke-opacity:1"
         d="m 812.922,123.074 v 14.582 h 51.492 v 30.563 h 12.07 v -45.145 h -63.562 z" /><path
         id="path20"
         style="fill:#231f20;fill-opacity:1;fill-rule:nonzero;stroke:none"
         d="m 812.98,171.863 v 46.93 h 12.071 v -32.348 h 12.984 v 27.539 h 12.309 v -27.539 h 26.199 V 171.863 H 812.98" /><g
         id="g22"><g
           clip-path="url(#clipPath28)"
           id="g24"><path
             id="path30"
             style="fill:none;stroke:#231f20;stroke-width:0.13589001;stroke-linecap:butt;stroke-linejoin:miter;stroke-miterlimit:3.86369991;stroke-dasharray:none;stroke-opacity:1"
             d="m 812.98,171.863 v 46.93 h 12.071 v -32.348 h 12.984 v 27.539 h 12.309 v -27.539 h 26.199 V 171.863 H 812.98 Z" /></g></g><path
         id="path32"
         style="fill:#231f20;fill-opacity:1;fill-rule:nonzero;stroke:none"
         d="m 887.883,59.0625 0.047,46.2735 h 11.843 V 73.8945 h 11.165 v 27.7935 h 12.304 V 73.6719 h 14.356 V 106.25 h 11.797 V 59.082 l -61.512,-0.0195" /><path
         id="path34"
         style="fill:none;stroke:#231f20;stroke-width:0.13589001;stroke-linecap:butt;stroke-linejoin:miter;stroke-miterlimit:3.86369991;stroke-dasharray:none;stroke-opacity:1"
         d="m 887.883,59.0625 0.047,46.2735 h 11.843 V 73.8945 h 11.165 v 27.7935 h 12.304 V 73.6719 h 14.356 V 106.25 h 11.797 V 59.082 l -61.512,-0.0195 z" /><path
         id="path36"
         style="fill:#231f20;fill-opacity:1;fill-rule:nonzero;stroke:none"
         d="m 949.617,163.172 h -61.961 v -14.578 l 36.492,-0.02 4.438,0.496 -40.93,-23.261 V 111.23 h 61.961 v 14.579 h -37.398 l -4.621,-0.606 42.019,23.391 v 14.578" /><g
         id="g38"><g
           clip-path="url(#clipPath44)"
           id="g40"><path
             id="path46"
             style="fill:none;stroke:#231f20;stroke-width:0.13589001;stroke-linecap:butt;stroke-linejoin:miter;stroke-miterlimit:3.86369991;stroke-dasharray:none;stroke-opacity:1"
             d="m 949.617,163.172 h -61.961 v -14.578 l 36.492,-0.02 4.438,0.496 -40.93,-23.261 V 111.23 h 61.961 v 14.579 h -37.398 l -4.621,-0.606 42.019,23.391 v 14.578 z" /></g></g><path
         id="path48"
         style="fill:#231f20;fill-opacity:1;fill-rule:nonzero;stroke:none"
         d="m 887.473,168.75 v 50.043 h 10.586 l 39.468,-32.816 v 32.816 h 12.051 V 167.324 H 938.75 l -39.109,33.242 v -31.871 l -12.168,0.055" /><g
         id="g50"><g
           clip-path="url(#clipPath56)"
           id="g52"><path
             id="path58"
             style="fill:none;stroke:#231f20;stroke-width:0.13589001;stroke-linecap:butt;stroke-linejoin:miter;stroke-miterlimit:3.86369991;stroke-dasharray:none;stroke-opacity:1"
             d="m 887.473,168.75 v 50.043 h 10.586 l 39.468,-32.816 v 32.816 h 12.051 V 167.324 H 938.75 l -39.109,33.242 v -31.871 l -12.168,0.055 z" /><path
             id="path60"
             style="fill:#231f20;fill-opacity:1;fill-rule:evenodd;stroke:none"
             d="m 812.961,4.16016 h 63.582 V 17.0039 h -25.051 c 0,11.5508 -0.847,15.5352 3.93,18.8047 6.504,4.4531 18.758,1.0391 21.121,4.3359 v 14.5352 c -4.219,-4.543 -20.059,-0.5586 -26.16,-4.9844 -2.387,-1.7265 -3.723,-3.3555 -4.863,-5.75 -3.047,6.3477 -8,9.8945 -15.082,9.8945 -12.418,0 -17.477,-9.4765 -17.477,-22.1015 V 4.16016 M 824.988,16.875 c 0,0 -0.125,10.5977 0,13.7109 0.356,8.7891 5.11,8.8477 7.61,8.8477 5.222,0 7.402,-2.4219 7.519,-9.1133 0.059,-3.3867 0,-13.4453 0,-13.4453 h -15.129 v 0" /><path
             id="path62"
             style="fill:#231f20;fill-opacity:1;fill-rule:evenodd;stroke:none"
             d="m 887.605,3.99219 h 62.051 V 35.1563 c 0.512,10.0585 -8.125,18.75 -18.172,18.3203 -6.933,-0.293 -11.828,-3.4961 -14.902,-9.7071 -3.152,5 -7.078,7.793 -12.977,7.793 -8.222,0 -16.007,-6.6406 -16.007,-24.8242 l 0.007,-22.74611 m 12.153,12.90231 12.168,-0.0468 v 13.5234 c 0.137,3.6133 -2.524,7.8711 -6.406,7.6562 -3.735,-0.1953 -5.762,-3.9062 -5.747,-7.6562 l -0.015,-13.4766 z m 23.113,-0.0468 H 937.5 v 14.6171 c -0.02,3.75 -2.664,7.5977 -6.699,7.9297 -4.324,0.3633 -8.211,-3.457 -7.93,-7.7929 v -14.7539 0" /></g></g><path
         id="path64"
         style="fill:#231f20;fill-opacity:1;fill-rule:nonzero;stroke:none"
         d="m 729.07,4.21875 h 42.688 V 218.867 H 729.07 V 4.21875 Z M 706.23,218.867 h -42.683 v -35.179 h 42.683 v 35.179 z M 663.547,4.21875 H 706.23 V 159.633 H 663.547 V 4.21875 Z M 616.641,206.234 h -42.696 v -46.601 h -25.84 v -28.559 h 25.84 V 39.3867 c 0,-30.96873 22.852,-36.98436 49.016,-36.98436 8.406,0 17.723,0.30079 24.949,1.51172 V 37.2852 c -4.512,-0.9063 -8.722,-1.211 -13.23,-1.211 -14.426,0 -18.039,3.6133 -18.039,18.0469 v 76.9529 h 48.281 v 28.559 h -48.281 v 46.601 z M 408.609,54.7188 C 410.422,13.5352 445.59,0 481.66,0 c 35.481,0 70.945,13.2227 70.945,54.1211 0,28.8477 -24.343,37.8711 -49.292,43.582 -24.352,5.7109 -48.403,7.8239 -48.403,23.1519 0,12.629 14.129,14.426 23.75,14.426 15.324,0 27.961,-4.504 29.16,-21.039 h 40.578 c -3.3,38.184 -34.57,49.602 -68.539,49.602 -33.371,0 -67.636,-10.223 -67.636,-49.899 0,-27.363 24.648,-36.0739 49.297,-41.4841 30.668,-6.6211 48.402,-11.1328 48.402,-24.0625 0,-15.0195 -15.625,-19.8359 -27.953,-19.8359 -16.836,0 -32.465,7.5117 -32.77,26.1563 h -40.59 z m -6.461,164.1482 h -42.679 v -35.179 h 42.679 v 35.179 z M 359.469,4.21875 h 42.679 V 159.633 H 359.469 V 4.21875 Z m -252.141,0 H 150.02 V 74.2578 c 0,27.3632 10.82,49.9062 42.082,49.9062 5.109,0 11.429,-0.601 15.339,-1.508 v 39.688 c -2.711,0.902 -6.324,1.5 -9.32,1.5 -20.754,0 -41.793,-13.531 -49.609,-33.067 h -0.602 v 28.856 H 107.328 V 4.21875 Z m -81.7655,0 H 68.2539 V 131.074 h 43.6171 v 28.559 H 68.2539 v 9.32 c 0,12.93 4.8086,17.742 16.2266,17.742 5.4062,0 10.5195,-0.3 15.6245,-0.898 v 31.859 c -7.2027,0.297 -15.0269,1.211 -22.5347,1.211 -34.8789,0 -52.0078,-19.855 -52.0078,-47.203 V 159.633 H 0 V 131.074 H 25.5625 V 4.21875 v 0" /><path
         id="path66"
         style="fill:#231f20;fill-opacity:1;fill-rule:nonzero;stroke:none"
         d="m 237.512,98.6016 c 0.597,12.0354 8.418,33.0744 35.476,33.0744 20.742,0 30.063,-11.422 33.969,-33.0744 H 237.512 Z M 349.648,71.5547 c 3.004,47.8003 -22.546,92.2893 -75.46,92.2893 -47.196,0 -79.368,-35.469 -79.368,-82.0667 C 194.82,33.6719 225.191,0 274.188,0 c 35.171,0 60.722,15.6367 72.75,52.3125 H 309.359 C 306.66,42.6953 292.832,32.168 275.688,32.168 c -23.75,0 -36.977,12.3242 -38.176,39.3867 h 112.136 v 0" /></g></g></svg>